<?xml version="1.0" standalone="no"?>
<!DOCTYPE svg PUBLIC "-//W3C//DTD SVG 20010904//EN"
 "http://www.w3.org/TR/2001/REC-SVG-20010904/DTD/svg10.dtd">
<svg version="1.0" xmlns="http://www.w3.org/2000/svg"
 width="1024.000000pt" height="1024.000000pt" viewBox="0 0 1024.000000 1024.000000"
 preserveAspectRatio="xMidYMid meet">
<metadata>
Created by potrace 1.11, written by Peter Selinger 2001-2013
</metadata>
<g transform="translate(0.000000,1024.000000) scale(0.100000,-0.100000)"
fill="#000000" stroke="none">
<path d="M3893 10230 c-18 -4 -33 -5 -33 -3 0 3 -6 1 -12 -4 -7 -6 -21 -9 -30
-8 -10 2 -18 -1 -18 -6 0 -5 -9 -9 -20 -9 -19 0 -58 -17 -70 -31 -3 -3 -20
-11 -37 -18 -18 -8 -33 -17 -33 -22 0 -4 -8 -10 -19 -14 -25 -8 -106 -89 -154
-155 -22 -30 -43 -57 -47 -60 -3 -3 -36 -52 -74 -110 -38 -58 -72 -107 -75
-110 -3 -3 -7 -12 -9 -20 -2 -8 -9 -22 -16 -30 -47 -57 -260 -471 -341 -665
-7 -16 -25 -56 -38 -87 -14 -32 -24 -58 -21 -58 2 0 -2 -13 -10 -28 -25 -49
-130 -353 -142 -412 -3 -14 -9 -29 -13 -33 -8 -8 -63 -23 -121 -33 -14 -2 -36
-7 -50 -9 -14 -3 -38 -8 -55 -11 -16 -3 -75 -17 -130 -30 -107 -28 -126 -32
-165 -40 -14 -3 -45 -12 -70 -20 -25 -9 -52 -17 -60 -19 -8 -2 -34 -10 -58
-19 -23 -8 -46 -15 -50 -16 -14 -1 -48 -12 -81 -27 -18 -8 -39 -16 -45 -17 -6
-1 -28 -10 -50 -19 -21 -9 -40 -17 -43 -17 -2 0 -40 -18 -85 -40 -205 -103
-320 -214 -335 -327 -8 -58 22 -133 75 -188 51 -53 95 -91 133 -115 29 -17
207 -110 214 -110 3 0 25 -9 51 -20 25 -11 51 -20 58 -20 7 0 17 -5 24 -12 7
-7 12 -9 12 -6 0 4 36 -6 80 -22 44 -16 113 -39 155 -50 143 -38 291 -75 341
-84 12 -3 38 -9 58 -14 20 -6 36 -8 36 -6 0 3 9 0 20 -6 11 -6 18 -15 15 -21
-4 -5 -3 -9 2 -9 4 0 8 -35 9 -78 1 -124 27 -338 50 -414 3 -9 6 -25 8 -35 2
-10 9 -38 16 -63 7 -25 14 -52 15 -60 2 -8 4 -16 5 -17 2 -2 3 -6 4 -10 4 -23
50 -160 56 -168 4 -5 13 -28 20 -50 7 -22 40 -96 73 -165 33 -69 60 -128 59
-132 -1 -5 2 -8 6 -8 10 0 35 -50 28 -57 -4 -5 -82 -7 -101 -3 -5 1 -14 2 -20
0 -8 -1 -104 0 -140 1 -5 1 -44 1 -85 0 -41 0 -84 0 -95 0 -11 0 -44 -1 -73
-1 -29 0 -57 2 -62 5 -6 3 -10 1 -10 -5 0 -6 -4 -9 -9 -5 -6 3 -38 5 -73 5
-35 -1 -76 0 -93 1 -16 0 -36 1 -42 0 -27 -2 -70 -2 -138 -1 -11 0 -33 0 -50
-1 -16 -1 -37 -1 -45 0 -156 11 -265 -22 -336 -101 -96 -108 -112 -228 -49
-373 60 -138 89 -211 87 -217 -1 -5 3 -8 8 -8 6 0 10 -7 10 -15 0 -8 4 -23 10
-33 5 -9 19 -39 30 -67 12 -27 28 -65 36 -82 8 -18 21 -50 30 -70 9 -21 22
-49 29 -63 7 -14 14 -29 15 -35 2 -9 10 -29 43 -105 5 -14 11 -27 12 -30 0 -3
9 -23 19 -45 10 -22 27 -58 37 -81 11 -22 19 -44 19 -49 0 -5 13 -36 29 -69
28 -60 42 -96 42 -106 0 -3 6 -14 12 -25 43 -69 44 -68 -52 -129 -48 -31 -112
-74 -142 -96 -172 -125 -330 -271 -463 -425 -38 -44 -76 -86 -84 -92 -9 -7
-12 -13 -6 -13 5 0 4 -4 -1 -8 -6 -4 -37 -43 -68 -87 -31 -44 -61 -85 -67 -92
-5 -7 -10 -14 -10 -16 0 -2 -23 -42 -51 -88 -51 -85 -129 -240 -129 -257 0 -5
-7 -15 -15 -22 -8 -7 -15 -20 -15 -29 0 -9 -7 -29 -16 -46 -14 -27 -82 -221
-89 -255 -2 -8 -4 -15 -5 -15 -2 0 -4 -10 -18 -75 -6 -25 -13 -56 -16 -70 -19
-77 -32 -145 -41 -230 -4 -30 -9 -68 -12 -85 -3 -16 -7 -302 -9 -635 -3 -554
1 -675 22 -740 3 -8 6 -17 6 -20 8 -56 86 -216 141 -290 102 -138 277 -271
417 -315 69 -22 128 -38 158 -43 53 -10 7418 -9 7470 1 93 18 282 88 290 109
2 4 8 8 12 8 40 0 214 162 281 260 40 58 107 190 113 223 2 7 8 31 15 54 24
86 26 142 26 723 0 543 -4 677 -22 765 -3 17 -7 46 -9 65 -1 19 -3 35 -4 35
-1 0 -4 16 -7 35 -2 19 -10 56 -18 83 -8 26 -14 49 -14 52 -1 14 -16 69 -38
145 -60 202 -185 473 -299 648 -30 45 -54 85 -54 87 0 3 -8 14 -17 24 -10 11
-34 41 -53 68 -19 26 -43 56 -54 65 -10 10 -16 18 -13 18 19 0 -227 251 -339
346 -109 93 -118 100 -151 121 -15 9 -30 20 -33 23 -13 14 -80 60 -87 60 -4 1
-21 11 -36 24 -28 22 -28 24 -14 59 9 19 13 38 9 41 -3 3 0 6 6 6 7 0 12 6 12
13 0 7 29 88 65 181 36 92 65 174 65 182 0 8 5 14 10 14 6 0 10 6 10 13 0 12
79 226 113 307 6 14 11 27 12 30 5 20 19 60 30 85 8 17 34 85 59 151 25 67 50
132 55 145 31 78 32 84 33 164 1 48 -5 81 -16 103 -9 17 -14 32 -11 32 10 0
-30 53 -67 90 -60 60 -179 97 -288 91 -8 0 -33 -1 -55 0 -22 0 -44 0 -50 0
-64 -3 -116 -3 -120 1 -3 3 -25 2 -50 -2 -25 -4 -47 -5 -50 -2 -7 7 -95 8 -95
1 0 -3 -20 -3 -45 1 -25 4 -45 3 -45 -2 0 -5 -4 -7 -9 -3 -6 3 -38 5 -73 5
-64 -1 -107 0 -143 4 -11 1 -37 -1 -57 -5 -21 -3 -38 -3 -38 1 0 4 -18 4 -40
0 -22 -4 -43 -4 -45 0 -3 4 -20 4 -39 0 -19 -4 -40 -4 -46 0 -7 4 -24 5 -39 1
-28 -8 -64 -3 -59 7 2 4 12 25 23 47 11 22 22 42 25 45 11 11 40 72 40 85 0 7
4 15 8 17 10 4 97 211 108 254 4 16 10 34 14 39 8 11 47 147 54 185 3 14 5 26
7 28 1 1 2 5 3 10 16 62 19 80 22 97 2 11 5 29 7 40 10 45 38 272 37 303 -2
126 -1 129 43 138 39 7 61 12 132 29 39 9 81 19 95 21 14 3 59 14 100 26 41
11 82 21 90 23 27 6 184 56 205 65 11 5 31 12 45 15 14 4 41 14 60 23 19 9 42
17 50 19 21 3 179 81 210 103 14 10 27 17 30 16 10 -2 85 58 132 106 65 66 87
114 84 186 -4 93 -63 173 -195 264 -40 28 -212 118 -225 118 -4 0 -25 9 -49
20 -112 52 -498 162 -737 211 -52 11 -104 22 -115 24 -11 3 -31 7 -44 10 -14
2 -27 8 -31 12 -4 5 -24 64 -44 133 -21 69 -43 136 -49 150 -6 14 -11 28 -12
33 -2 4 -4 9 -5 12 -1 3 -3 8 -5 13 -1 4 -5 14 -8 22 -4 8 -22 57 -42 109 -19
51 -38 98 -42 105 -4 6 -8 16 -9 21 -1 6 -13 33 -25 60 -13 28 -23 52 -24 55
-2 17 -186 376 -246 480 -70 123 -216 348 -261 403 -13 16 -37 46 -55 68 -64
79 -221 187 -280 191 -13 2 -23 5 -23 9 0 3 -6 6 -12 7 -7 0 -29 4 -48 8 -57
13 -269 8 -287 -7 -2 -1 -7 -3 -13 -4 -5 -1 -12 -4 -15 -5 -3 -1 -9 -4 -15 -5
-5 -1 -12 -4 -15 -5 -3 -1 -8 -3 -12 -4 -20 -4 -289 -141 -295 -150 -4 -6 -8
-8 -8 -4 0 4 -60 -23 -132 -60 -153 -77 -248 -121 -281 -128 -12 -3 -26 -6
-32 -7 -5 -2 -14 -5 -20 -9 -12 -7 -231 -3 -264 5 -68 18 -122 42 -421 189
-372 183 -351 174 -410 189 -56 14 -214 20 -257 9z m-538 -3305 c17 -2 57 -7
91 -10 33 -4 74 -8 90 -10 39 -5 170 -17 219 -20 22 -2 74 -6 115 -9 174 -15
209 -17 280 -21 298 -18 586 -25 975 -25 313 1 670 6 670 10 0 1 38 3 85 5
164 6 398 20 500 31 30 3 84 7 120 9 36 2 90 7 120 10 211 23 221 24 233 32 6
4 7 1 2 -7 -5 -8 -4 -11 2 -7 12 8 44 13 125 22 59 6 65 5 63 -12 0 -10 -4
-24 -8 -30 -4 -6 -4 -14 1 -17 10 -6 9 -67 -2 -84 -4 -7 -3 -12 1 -12 5 0 9
-10 9 -21 0 -13 -17 -36 -45 -58 -47 -39 -86 -78 -86 -89 -1 -10 -84 -263 -95
-287 -12 -25 -43 -98 -45 -105 -10 -27 -21 -48 -33 -62 -8 -10 -12 -18 -8 -18
11 0 -79 -124 -122 -169 -45 -46 -136 -111 -157 -111 -8 0 -15 -4 -15 -10 0
-5 -5 -10 -11 -10 -6 0 -25 -6 -42 -14 -37 -16 -95 -35 -129 -41 -13 -3 -43
-8 -68 -13 -49 -9 -209 -7 -250 3 -14 3 -35 8 -48 11 -137 28 -320 164 -420
310 -42 63 -104 178 -102 190 1 4 -2 10 -7 13 -5 3 -20 35 -33 71 -30 85 -65
147 -93 162 -66 37 -135 43 -197 16 -52 -22 -82 -58 -110 -130 -13 -34 -32
-82 -42 -105 -11 -24 -17 -45 -16 -47 2 -2 -4 -12 -13 -22 -9 -11 -20 -30 -24
-44 -4 -14 -11 -27 -14 -30 -4 -3 -25 -34 -48 -70 -58 -89 -189 -222 -237
-239 -6 -2 -13 -7 -16 -10 -9 -11 -124 -61 -150 -65 -14 -3 -25 -5 -25 -6 0
-3 -104 -22 -120 -22 -28 0 -183 12 -200 16 -70 16 -142 39 -177 56 -23 11
-48 20 -55 20 -7 0 -13 5 -13 10 0 6 -5 10 -11 10 -29 0 -142 96 -194 165 -40
53 -103 160 -98 168 2 4 -1 7 -8 7 -7 0 -10 3 -6 6 3 3 -3 21 -14 40 -10 19
-19 43 -19 52 0 10 -4 22 -9 28 -5 5 -27 68 -50 139 -23 72 -46 139 -52 150
-6 11 -34 39 -63 62 l-53 43 1 90 c1 49 -2 90 -6 90 -4 0 -5 7 -1 15 5 16 37
15 158 0z m72 -2507 c46 -29 83 -56 83 -60 0 -5 4 -8 9 -8 9 0 169 -98 181
-110 9 -9 89 -60 95 -60 3 0 11 -5 18 -11 7 -5 46 -32 87 -58 41 -27 127 -82
190 -123 63 -41 130 -83 148 -93 17 -11 32 -24 32 -29 0 -5 3 -7 6 -3 7 7 51
-32 67 -60 38 -66 60 -101 77 -128 11 -16 23 -37 27 -45 4 -8 27 -46 51 -85
25 -38 45 -71 44 -72 -3 -6 34 -63 41 -63 4 0 7 -5 7 -10 0 -6 18 -40 40 -76
22 -36 40 -68 40 -71 0 -2 14 -24 30 -48 17 -24 30 -48 30 -54 0 -6 3 -11 8
-11 4 0 12 -10 18 -23 6 -12 19 -36 28 -53 12 -24 13 -37 5 -65 -5 -19 -12
-45 -15 -59 -3 -14 -14 -54 -24 -90 -11 -36 -21 -74 -23 -85 -2 -11 -9 -40
-16 -65 -8 -25 -15 -52 -16 -60 -2 -8 -4 -15 -5 -15 -1 0 -3 -7 -5 -15 -10
-42 -36 -137 -42 -150 -3 -8 -7 -24 -8 -35 -2 -11 -17 -72 -35 -135 -17 -63
-33 -126 -36 -140 -2 -14 -7 -32 -11 -40 -3 -8 -7 -19 -8 -25 -2 -5 -13 -46
-24 -90 -12 -44 -23 -87 -25 -95 -2 -8 -11 -42 -20 -75 -9 -33 -19 -71 -22
-85 -3 -13 -20 -79 -39 -145 -19 -67 -41 -148 -49 -181 -8 -32 -29 -111 -46
-174 -17 -63 -33 -124 -35 -135 -3 -11 -28 -103 -56 -205 -59 -215 -57 -210
-58 -232 -1 -10 -6 -18 -13 -18 -6 0 -9 2 -6 6 3 3 -2 36 -12 75 -10 38 -19
73 -19 77 -1 4 -4 21 -7 37 -3 17 -7 39 -9 50 -2 11 -4 20 -5 20 -1 0 -3 16
-6 35 -2 19 -8 46 -13 60 -9 24 -23 88 -26 122 -1 9 -5 24 -9 34 -4 9 -9 33
-12 53 -3 20 -14 72 -24 116 -17 75 -33 148 -45 205 -3 14 -14 66 -25 115 -11
50 -22 101 -25 115 -2 14 -8 41 -13 60 -5 19 -9 37 -10 40 0 3 -3 16 -6 30 -3
14 -8 36 -10 50 -3 14 -12 59 -21 100 -10 41 -19 84 -21 95 -1 11 -6 34 -10
50 -3 17 -7 36 -7 43 0 6 -3 12 -6 12 -3 0 -7 10 -7 23 -1 12 -4 31 -7 42 -3
11 -17 76 -32 145 -15 69 -28 132 -30 140 -30 140 -60 277 -71 326 -13 62 -20
93 -29 142 -3 15 -10 43 -15 62 -5 19 -11 51 -14 70 -3 19 -12 59 -20 88 -8
29 -15 56 -15 60 -1 4 -4 21 -7 37 -3 17 -7 39 -9 50 -2 11 -4 20 -5 20 -2 0
-7 21 -14 65 -4 19 -13 64 -22 99 -9 35 -20 85 -24 110 -5 25 -18 89 -30 141
-25 112 -39 177 -45 205 -2 11 -4 20 -5 20 -1 0 -3 11 -5 25 -4 27 -9 53 -24
115 -5 22 -12 54 -15 70 -3 17 -10 50 -16 75 -5 25 -12 55 -15 68 -3 12 -2 22
2 22 4 0 44 -24 90 -52z m3479 35 c-5 -18 -27 -128 -28 -138 0 -2 -8 -35 -17
-72 -10 -38 -17 -76 -15 -86 1 -9 -1 -17 -5 -17 -4 0 -8 -6 -8 -12 0 -11 -8
-50 -29 -148 -3 -14 -7 -36 -10 -49 -3 -12 -11 -51 -19 -85 -8 -33 -16 -72
-19 -86 -2 -14 -10 -47 -16 -75 -13 -58 -18 -78 -26 -120 -8 -42 -9 -48 -17
-70 -3 -11 -8 -36 -11 -55 -6 -40 -8 -49 -31 -143 -8 -37 -13 -72 -10 -77 4
-6 2 -10 -3 -10 -5 0 -12 -17 -15 -37 -3 -21 -9 -49 -12 -63 -3 -14 -8 -34
-10 -45 -7 -43 -46 -219 -49 -224 -2 -3 -7 -28 -10 -55 -4 -27 -10 -54 -14
-60 -3 -6 -7 -22 -8 -36 -1 -14 -7 -45 -13 -70 -7 -25 -14 -54 -16 -65 -7 -29
-17 -78 -19 -95 -2 -8 -5 -24 -9 -35 -3 -11 -8 -31 -11 -45 -2 -14 -12 -59
-21 -100 -16 -72 -20 -93 -29 -142 -2 -13 -9 -43 -15 -68 -22 -91 -99 -448
-106 -490 -1 -8 -5 -22 -8 -30 -2 -8 -10 -42 -17 -75 -6 -33 -20 -97 -31 -143
-11 -46 -17 -87 -14 -92 4 -6 1 -10 -4 -10 -6 0 -10 -3 -9 -8 1 -4 -1 -20 -5
-37 -4 -16 -9 -41 -11 -55 -3 -14 -7 -36 -11 -50 -7 -34 -11 -51 -30 -145 -9
-44 -19 -87 -22 -95 -3 -8 -7 -24 -9 -35 -1 -11 -5 -32 -8 -47 -3 -16 -9 -40
-12 -55 -7 -34 -23 -54 -25 -30 -1 9 -2 20 -3 25 -8 30 -29 105 -42 147 -8 28
-16 59 -18 70 -1 11 -6 27 -9 35 -3 8 -12 42 -21 75 -31 125 -67 261 -73 275
-3 8 -7 24 -9 35 -1 11 -14 63 -29 115 -23 85 -60 220 -70 260 -6 21 -70 260
-95 355 -20 72 -56 208 -59 220 -1 3 -3 10 -5 17 -2 7 -6 22 -9 33 -2 11 -17
65 -32 120 -15 55 -28 107 -30 115 -2 8 -13 51 -25 95 -12 44 -28 105 -36 135
-8 30 -26 96 -40 147 l-25 92 70 115 c38 63 67 117 64 120 -3 3 2 8 11 12 9 3
16 10 16 14 0 4 43 79 95 165 52 87 95 160 95 162 0 2 14 24 30 48 17 24 30
48 30 54 0 6 3 11 8 11 4 0 13 14 21 30 22 51 67 92 171 154 36 22 67 43 68
48 2 4 8 8 12 8 12 0 104 62 108 72 2 5 7 6 12 3 5 -3 14 1 22 8 20 20 187
127 198 127 6 0 10 5 10 10 0 6 7 10 15 10 8 0 15 4 15 9 0 5 14 14 30 21 17
7 30 16 30 20 0 4 10 11 23 17 12 6 85 51 162 102 77 50 144 91 148 91 5 0 6
-8 3 -17z"/>
</g>
</svg>
